<svg width="21" height="19" viewBox="0 0 21 19" fill="none" xmlns="http://www.w3.org/2000/svg">
<path d="M4.99999 18H5.99999L15.43 18C16.5 18 17.41 17.33 17.62 16.39L18.96 10.39C19.23 9.15 18.18 8 16.77 8L12.54 8L14.06 3.06C14.38 2.03 13.54 1 12.38 1C11.8 1 11.24 1.24 10.86 1.65L4.99999 8L0.999993 8L0.999993 18L4.99999 18ZM11.6 2.33C11.79 2.12 12.08 2 12.38 2C12.64 2 12.88 2.11 13.01 2.3C13.08 2.4 13.16 2.56 13.1 2.77L11.58 7.71L11.18 9H12.54L16.77 9C17.18 9 17.57 9.17 17.8 9.46C17.92 9.61 18.05 9.86 17.98 10.18L16.64 16.18C16.54 16.65 16.03 17 15.43 17L5.99999 17L5.99999 8.39L11.6 2.33ZM1.99999 9L4.99999 9L4.99999 17L1.99999 17L1.99999 9Z" fill="white" stroke="white" stroke-width="2"/>
</svg>
