<svg width="20" height="20" viewBox="0 0 20 20" fill="none" xmlns="http://www.w3.org/2000/svg">
<path fill-rule="evenodd" clip-rule="evenodd" d="M11.6919 4.42212C10.2589 5.14133 7.39489 6.62992 3.09993 8.88789C2.40249 9.22255 2.03715 9.54995 2.00389 9.87008C1.94768 10.4111 2.50916 10.6242 3.27375 10.9143C3.37775 10.9537 3.48552 10.9946 3.59599 11.0379C4.34823 11.333 5.36013 11.6782 5.88617 11.6919C6.36334 11.7043 6.89592 11.467 7.4839 10.9798C11.4968 7.71112 13.5683 6.05898 13.6984 6.02336C13.7901 5.99823 13.9172 5.96664 14.0034 6.05903C14.0895 6.15142 14.0811 6.3264 14.0719 6.37334C14.0163 6.65947 11.8123 9.132 10.6717 10.4115C10.3162 10.8104 10.0639 11.0934 10.0124 11.158C9.89687 11.3027 9.77916 11.4397 9.66603 11.5713C8.96718 12.3842 8.44311 12.9938 9.69504 13.9893C10.2967 14.4677 10.7781 14.8633 11.2584 15.258C11.7829 15.689 12.3061 16.1189 12.9829 16.6543C13.1554 16.7907 13.3201 16.9324 13.4805 17.0704C14.0909 17.5955 14.6393 18.0673 15.3169 17.9921C15.7106 17.9484 16.1172 17.5017 16.3237 16.1694C16.8118 13.021 17.7712 6.19919 17.9929 3.38811C18.0123 3.14182 17.9879 2.82662 17.9683 2.68825C17.9486 2.54989 17.9076 2.35275 17.7586 2.20681C17.5821 2.03398 17.3096 1.99753 17.1877 2.00012C16.6335 2.0119 15.7834 2.36861 11.6919 4.42212Z" fill="white" stroke="white"/>
</svg>
