<svg width="16" height="16" viewBox="0 0 16 16" fill="none" xmlns="http://www.w3.org/2000/svg">
<path d="M13.7756 12.514C13.7756 12.514 13.0031 13.2726 12.8138 13.4951C12.5054 13.8241 12.1421 13.9795 11.6658 13.9795C11.62 13.9795 11.5712 13.9795 11.5254 13.9765C10.6186 13.9186 9.77595 13.5652 9.14395 13.2635C7.41588 12.4287 5.89847 11.2434 4.63753 9.7413C3.59641 8.48903 2.9003 7.33121 2.43927 6.08807C2.15533 5.3294 2.05152 4.7383 2.09732 4.18072C2.12785 3.82423 2.26524 3.52868 2.51865 3.27579L3.55977 2.2368C3.70938 2.09664 3.86814 2.02047 4.02385 2.02047C4.2162 2.02047 4.3719 2.13625 4.46961 2.23375C4.47266 2.2368 4.47571 2.23985 4.47876 2.2429C4.66501 2.41657 4.84209 2.59633 5.02833 2.78829C5.12298 2.88579 5.22068 2.98329 5.31838 3.08384L6.15188 3.91564C6.47551 4.23861 6.47551 4.53721 6.15188 4.86018C6.06334 4.94854 5.97785 5.0369 5.88931 5.12221C5.63285 5.38424 5.83431 5.18319 5.56869 5.42084C5.56259 5.42694 5.55648 5.42998 5.55343 5.43608C5.29086 5.69811 5.33971 5.95405 5.39466 6.12772C5.39772 6.13686 5.40077 6.146 5.40382 6.15515C5.6206 6.67921 5.92591 7.17281 6.38998 7.76086L6.39304 7.7639C7.2357 8.79985 8.12416 9.60727 9.10422 10.2258C9.2294 10.305 9.35763 10.369 9.47975 10.4299C9.58967 10.4848 9.69347 10.5366 9.78201 10.5914C9.79423 10.5975 9.80644 10.6067 9.81865 10.6127C9.92246 10.6645 10.0202 10.6889 10.1209 10.6889C10.3743 10.6889 10.5331 10.5305 10.585 10.4787L11.1834 9.88146C11.2872 9.77786 11.4521 9.65294 11.6445 9.65294C11.8338 9.65294 11.9895 9.77177 12.0841 9.87536C12.0872 9.87841 12.0872 9.87841 12.0902 9.88146L13.7725 11.5603C14.087 11.8711 13.7756 12.514 13.7756 12.514Z" stroke="white" stroke-linecap="round" stroke-linejoin="round"/>
</svg>
