<svg width="56" height="56" viewBox="0 0 56 56" fill="none" xmlns="http://www.w3.org/2000/svg">
<path d="M48.2619 1.80231C47.9192 1.80211 47.5798 1.86923 47.2632 1.99982C46.9465 2.13041 46.6588 2.32192 46.4164 2.56339C46.1741 2.80486 45.9819 3.09156 45.8508 3.4071C45.7198 3.72263 45.6524 4.06081 45.6526 4.4023V6.05778C43.4519 8.77661 40.6705 10.9723 37.5109 12.485C34.3512 13.9977 30.8928 14.7893 27.3874 14.8023H11.7315C9.65605 14.8046 7.6663 15.6271 6.19876 17.0894C4.73123 18.5517 3.90577 20.5343 3.90351 22.6023V27.8023C3.90577 29.8703 4.73123 31.8529 6.19876 33.3152C7.6663 34.7775 9.65605 35.6 11.7315 35.6023H12.9938L6.72434 50.1789C6.55396 50.5743 6.48479 51.0056 6.52303 51.4342C6.56128 51.8628 6.70574 52.2752 6.94344 52.6344C7.18115 52.9936 7.50466 53.2884 7.88494 53.4922C8.26521 53.6961 8.69033 53.8026 9.12214 53.8023H19.5594C20.0702 53.8026 20.5698 53.6533 20.9961 53.373C21.4224 53.0926 21.7567 52.6936 21.9573 52.2256L29.0644 35.7011C32.2755 35.936 35.4042 36.8244 38.2573 38.3113C41.1104 39.7983 43.6273 41.8522 45.6526 44.3463V46.0023C45.6526 46.6919 45.9275 47.3532 46.4169 47.8408C46.9062 48.3284 47.5699 48.6023 48.2619 48.6023C48.954 48.6023 49.6177 48.3284 50.107 47.8408C50.5963 47.3532 50.8712 46.6919 50.8712 46.0023V4.4023C50.8714 4.06081 50.8041 3.72263 50.673 3.40709C50.542 3.09156 50.3498 2.80486 50.1074 2.56339C49.8651 2.32191 49.5774 2.13041 49.2607 1.99981C48.944 1.86922 48.6046 1.80211 48.2619 1.80231ZM11.7315 30.4023C11.0396 30.4018 10.3762 30.1278 9.88691 29.6403C9.39767 29.1528 9.12261 28.4917 9.12214 27.8023V22.6023C9.12261 21.9129 9.39767 21.2518 9.88692 20.7643C10.3762 20.2769 11.0396 20.0028 11.7315 20.0023H14.3408V30.4023H11.7315ZM17.8394 48.6023H13.0794L18.6701 35.6023H23.4301L17.8394 48.6023ZM45.6526 36.959C40.5077 32.7356 34.0533 30.4186 27.3874 30.4022H19.5594V20.0022H27.3874C34.0535 19.9852 40.5078 17.6678 45.6526 13.4441V36.959Z" fill="white"/>
<path d="M35.3043 50.1667L26.9124 5.26648" stroke="white" stroke-width="3" stroke-linecap="round"/>
</svg>
