<svg width="22" height="8" viewBox="0 0 22 8" fill="none" xmlns="http://www.w3.org/2000/svg">
<path d="M6.20002 4.0001C6.20002 5.32558 5.12551 6.4001 3.80002 6.4001C2.47454 6.4001 1.40002 5.32558 1.40002 4.0001C1.40002 2.67461 2.47454 1.6001 3.80002 1.6001C5.12551 1.6001 6.20002 2.67461 6.20002 4.0001Z" fill="white"/>
<path d="M13.4 4.0001C13.4 5.32558 12.3255 6.4001 11 6.4001C9.67454 6.4001 8.60002 5.32558 8.60002 4.0001C8.60002 2.67461 9.67454 1.6001 11 1.6001C12.3255 1.6001 13.4 2.67461 13.4 4.0001Z" fill="white"/>
<path d="M20.6 4.0001C20.6 5.32558 19.5255 6.4001 18.2 6.4001C16.8745 6.4001 15.8 5.32558 15.8 4.0001C15.8 2.67461 16.8745 1.6001 18.2 1.6001C19.5255 1.6001 20.6 2.67461 20.6 4.0001Z" fill="white"/>
<path d="M6.20002 4.0001C6.20002 5.32558 5.12551 6.4001 3.80002 6.4001C2.47454 6.4001 1.40002 5.32558 1.40002 4.0001C1.40002 2.67461 2.47454 1.6001 3.80002 1.6001C5.12551 1.6001 6.20002 2.67461 6.20002 4.0001Z" stroke="white" stroke-width="2"/>
<path d="M13.4 4.0001C13.4 5.32558 12.3255 6.4001 11 6.4001C9.67454 6.4001 8.60002 5.32558 8.60002 4.0001C8.60002 2.67461 9.67454 1.6001 11 1.6001C12.3255 1.6001 13.4 2.67461 13.4 4.0001Z" stroke="white" stroke-width="2"/>
<path d="M20.6 4.0001C20.6 5.32558 19.5255 6.4001 18.2 6.4001C16.8745 6.4001 15.8 5.32558 15.8 4.0001C15.8 2.67461 16.8745 1.6001 18.2 1.6001C19.5255 1.6001 20.6 2.67461 20.6 4.0001Z" stroke="white" stroke-width="2"/>
</svg>
