<svg width="65" height="35" viewBox="0 0 65 35" fill="none" xmlns="http://www.w3.org/2000/svg">
<mask id="mask0_1_74" style="mask-type:luminance" maskUnits="userSpaceOnUse" x="0" y="0" width="42" height="35">
<path d="M41.5003 0H0V35H41.5003V0Z" fill="white"/>
</mask>
<g mask="url(#mask0_1_74)">
<path d="M40.6432 8.80551L36.3224 15.771C36.2378 15.661 36.1592 15.5437 36.0688 15.4355C36.0575 15.42 36.0409 15.4041 36.0297 15.39C36.0184 15.3759 35.9959 15.3445 35.9808 15.3223C35.8117 15.0913 35.6313 14.8557 35.4398 14.6302C35.4231 14.6093 35.4007 14.5847 35.3836 14.562L35.1641 14.2946C35.0063 14.1009 34.8372 13.9018 34.6627 13.7131C34.6515 13.6972 34.6344 13.6867 34.6231 13.6712C34.5444 13.5803 34.4653 13.493 34.3788 13.4039C34.3673 13.3886 34.3542 13.3744 34.3397 13.3616C34.1818 13.1797 34.0073 12.9896 33.827 12.8114L33.8099 12.7959C33.7312 12.7118 33.652 12.6282 33.568 12.5495C33.3876 12.3553 33.1902 12.1616 32.9932 11.9834C32.9595 11.952 32.9312 11.9207 32.8955 11.8893C32.8222 11.8156 32.7489 11.7529 32.6756 11.6901C32.5778 11.5955 32.4898 11.5082 32.3882 11.4228C32.3154 11.3546 32.2362 11.2863 32.1575 11.2236C32.1384 11.2029 32.1177 11.1836 32.0954 11.1659C31.9884 11.0713 31.8814 10.9772 31.7744 10.893C31.7406 10.8671 31.7123 10.8357 31.6766 10.8094C31.5188 10.668 31.3497 10.5315 31.1879 10.4001C31.0867 10.3215 30.9924 10.2428 30.8893 10.1696C30.878 10.1591 30.8668 10.1537 30.8556 10.1432C30.6361 9.96499 30.4157 9.79221 30.185 9.62942C30.1459 9.60351 30.1063 9.57213 30.0614 9.54076C29.7681 9.32568 29.4749 9.12107 29.1768 8.92191C29.0136 8.81187 28.8445 8.70184 28.6754 8.5918C28.5063 8.48176 28.3377 8.37718 28.1686 8.27351C27.9995 8.16984 27.8265 8.06389 27.65 7.96432C27.4736 7.86474 27.3079 7.7597 27.1261 7.66558C26.9516 7.56054 26.7772 7.46642 26.5968 7.37184C26.4165 7.27726 26.242 7.18314 26.0592 7.09402C25.8765 7.0049 25.6986 6.91214 25.5128 6.8212C25.3271 6.73026 25.1463 6.64842 24.9606 6.5643C24.7524 6.47017 24.5496 6.3756 24.3409 6.28648C24.0594 6.16598 23.7774 6.05094 23.4905 5.93545C23.2256 5.83087 22.9529 5.73129 22.6846 5.63125C22.2624 5.47939 21.8342 5.33297 21.4003 5.20156C21.1637 5.12836 20.9272 5.05515 20.6848 4.98695L20.6794 4.98149C20.5611 4.95012 20.435 4.91329 20.3187 4.88191C20.2171 4.70003 20.11 4.51495 20.003 4.33171C19.9918 4.31579 19.9805 4.29488 19.9693 4.27942C19.7386 3.8861 19.4962 3.50325 19.2362 3.12084C19.225 3.09993 19.2078 3.07901 19.1966 3.05809C19.0783 2.87985 18.9522 2.70161 18.8247 2.52883C18.6898 2.33467 18.5544 2.14597 18.4137 1.96273C18.2729 1.77948 18.1317 1.59033 17.9856 1.40708C17.8394 1.22384 17.6982 1.04014 17.5457 0.861444C17.405 0.69366 17.2696 0.531333 17.1288 0.36855C17.117 0.353535 17.1038 0.339535 17.0892 0.326718L17.0721 0.311258C17.0609 0.305802 17.0609 0.300801 17.0555 0.295344C17.0512 0.284584 17.0433 0.275361 17.033 0.268971C17.0272 0.26397 17.0218 0.258514 17.0218 0.253512L17.0159 0.248056C16.9426 0.164391 16.8693 0.0857275 16.7965 0.00206296H35.1724C36.2808 -0.000227222 37.3703 0.269391 38.3309 0.783736C39.2916 1.29808 40.0896 2.03898 40.6444 2.93173C41.1991 3.82448 41.4911 4.83753 41.4909 5.86874C41.4907 6.9 41.1983 7.91293 40.6432 8.80551Z" fill="url(#paint0_linear_1_74)"/>
<path d="M20.3235 4.87937C20.2052 4.848 20.0869 4.81663 19.9686 4.78843C17.3905 4.10607 14.7225 3.76202 12.0421 3.76628C10.7213 3.76597 9.40209 3.8483 8.09319 4.01273C7.64259 4.07047 7.20323 4.13322 6.76387 4.20688C6.69594 4.21734 6.62312 4.2328 6.55519 4.24326C6.05376 4.3342 5.56406 4.43196 5.07387 4.542C5.06195 4.5432 5.05046 4.54676 5.04015 4.55245C3.57694 4.88574 2.14364 5.32384 0.753086 5.86289C0.539026 5.94701 0.319102 6.03613 0.110906 6.11979C0.0857097 6.13071 0.0612335 6.14303 0.0376011 6.15662C0.0278689 6.1594 0.0183834 6.1629 0.00924846 6.16708C-0.0347597 5.3715 0.095881 4.57595 0.393195 3.82887C0.69051 3.08181 1.14826 2.39893 1.73855 1.82187C2.32884 1.2448 3.03929 0.785656 3.82656 0.472432C4.61384 0.159205 5.46143 -0.00153589 6.31767 1.10603e-05H16.8017C16.8745 0.0836755 16.9483 0.162338 17.0212 0.246003L17.027 0.251459C17.027 0.256461 17.0324 0.261917 17.0383 0.266919C17.0485 0.273309 17.0564 0.282532 17.0608 0.293292C17.0733 0.30246 17.0846 0.312993 17.0945 0.324666C18.1921 1.57571 19.1668 2.91594 20.0068 4.3292C20.1148 4.51244 20.2218 4.69613 20.3235 4.87937Z" fill="url(#paint1_linear_1_74)"/>
<path d="M36.3223 15.7708L26.2087 32.0709C25.7501 32.818 25.1182 33.4606 24.3592 33.9521C23.6001 34.4434 22.7329 34.7713 21.8205 34.9118C21.8126 34.9111 21.8047 34.9128 21.798 34.9168C20.2407 35.1649 18.64 34.8641 17.3081 34.0734C17.4435 33.916 17.5784 33.7551 17.7079 33.5909C17.7144 33.5845 17.7201 33.5775 17.725 33.57C17.7362 33.5596 17.7533 33.5386 17.7738 33.5123C20.993 29.5339 22.9631 24.803 23.4653 19.8453C23.9676 14.8876 22.9822 9.89743 20.6187 5.42961C20.521 5.24773 20.4232 5.06312 20.3201 4.87942C20.4384 4.9108 20.5644 4.94763 20.6808 4.979L20.6862 4.98446C20.9305 5.05266 21.1651 5.12587 21.4016 5.19907C21.8356 5.33048 22.2637 5.4769 22.686 5.62877C22.9562 5.7288 23.227 5.82838 23.4919 5.93296C23.7788 6.04845 24.0608 6.16349 24.3423 6.28399C24.5509 6.37493 24.7538 6.46587 24.962 6.56181C25.1477 6.64593 25.3339 6.72959 25.5143 6.81871C25.6946 6.90783 25.8803 6.99695 26.0606 7.09153C26.2409 7.18611 26.4154 7.27341 26.5982 7.36935C26.781 7.46529 26.953 7.56351 27.1275 7.66309C27.302 7.76267 27.4828 7.85679 27.6514 7.96183C27.82 8.06686 28.0008 8.16599 28.1699 8.27102C28.339 8.37606 28.5076 8.48064 28.6767 8.58931C28.8458 8.69798 29.0149 8.80938 29.1782 8.91942C29.4768 9.11858 29.7754 9.32865 30.0628 9.53827C30.1077 9.56964 30.1474 9.60102 30.1864 9.62693C30.4122 9.79472 30.6375 9.9625 30.8569 10.1407C30.8682 10.1512 30.8794 10.1567 30.8906 10.1671C30.9923 10.2403 31.0862 10.319 31.1893 10.3976C31.3522 10.5286 31.5151 10.665 31.678 10.8069C31.7117 10.8332 31.74 10.8646 31.7757 10.8905C31.8828 10.9747 31.9898 11.0688 32.0968 11.1634C32.1191 11.1811 32.1398 11.2004 32.1589 11.2211C32.2376 11.2839 32.3109 11.3521 32.3896 11.4203C32.4912 11.5039 32.5811 11.5931 32.6769 11.6876C32.7502 11.7504 32.8235 11.8186 32.8968 11.8868C32.9306 11.9182 32.959 11.9495 32.9946 11.9809C33.1901 12.1646 33.3817 12.3533 33.5693 12.547C33.6534 12.6257 33.7326 12.7093 33.8112 12.7935L33.8284 12.8089C34.0028 12.9872 34.1773 13.1727 34.3411 13.3591C34.3556 13.3719 34.3687 13.3861 34.3801 13.4014C34.4647 13.4923 34.5438 13.5796 34.6245 13.6688C34.6357 13.6842 34.6528 13.6947 34.6641 13.7106C34.8332 13.8993 35.0018 14.093 35.1655 14.2921L35.3849 14.5595C35.402 14.5804 35.4245 14.605 35.4411 14.6277C35.6213 14.8532 35.8017 15.0839 35.9822 15.3198C35.9993 15.3407 36.0159 15.3652 36.031 15.3875C36.0462 15.4098 36.0589 15.4193 36.0702 15.433C36.1591 15.5453 36.2378 15.6608 36.3223 15.7708Z" fill="url(#paint2_linear_1_74)"/>
<path d="M23.5963 17.3222C23.6066 23.165 21.563 28.8506 17.777 33.5122C17.7545 33.5386 17.7375 33.5577 17.7282 33.57C17.7233 33.5775 17.7175 33.5845 17.7111 33.5909C17.5816 33.7537 17.4467 33.916 17.3113 34.0733C16.9982 33.8858 16.7045 33.6716 16.434 33.4336C16.429 33.4294 16.4234 33.4259 16.4174 33.4231V33.4181C15.9713 33.0228 15.5898 32.5689 15.285 32.0708L0.848681 8.80524C0.597219 8.40002 0.39683 7.96914 0.251471 7.52117C0.248536 7.51449 0.246568 7.50744 0.245609 7.50026C0.109944 7.06684 0.0305279 6.61987 0.00906372 6.1689C0.0181987 6.16472 0.0276841 6.16122 0.0374164 6.15844C0.0458429 6.15194 0.0552114 6.14657 0.065262 6.14253C0.081488 6.1378 0.096831 6.13075 0.110721 6.12161C0.318917 6.03795 0.538841 5.94883 0.752901 5.86471C1.07871 5.73921 1.40534 5.61794 1.73279 5.50095C1.77237 5.48503 1.81197 5.47457 1.85106 5.45911C2.47663 5.24404 3.11879 5.04488 3.76635 4.86801C3.82304 4.85255 3.88511 4.83663 3.94131 4.82254C3.96875 4.81317 3.99706 4.80621 4.02587 4.80162C4.36357 4.71068 4.70177 4.63384 5.03999 4.55517C5.05025 4.54949 5.06179 4.54591 5.07371 4.54472C5.56243 4.43468 6.0536 4.3351 6.55503 4.24598C6.62296 4.23552 6.69578 4.22006 6.76371 4.20961C6.95529 4.17823 7.14687 4.1464 7.34382 4.11867C7.36625 4.11321 7.39269 4.10821 7.42251 4.10275C7.64781 4.07138 7.86773 4.04501 8.09303 4.01181L8.36911 3.98044C8.60028 3.94906 8.831 3.92815 9.06754 3.90723C9.3383 3.88086 9.60856 3.85448 9.88469 3.83902C10.0313 3.82856 10.172 3.81811 10.3181 3.81811C10.431 3.80765 10.5493 3.8022 10.6603 3.79719C10.824 3.78674 10.9926 3.78128 11.1617 3.78128C11.455 3.77067 11.7481 3.76537 12.0414 3.76537C12.4925 3.76537 12.9431 3.77582 13.3878 3.79719C13.6527 3.8022 13.9176 3.81811 14.1766 3.83902C14.4865 3.85994 14.7909 3.88086 15.089 3.91223C15.3148 3.93315 15.5343 3.9577 15.7542 3.98589C15.9009 4.00135 16.0528 4.01727 16.199 4.03819C16.5088 4.08002 16.8183 4.12715 17.1275 4.1796C17.4374 4.22507 17.7472 4.28463 18.0517 4.34738C18.3728 4.41012 18.6993 4.47833 19.015 4.55154C19.3307 4.62474 19.6503 4.70386 19.967 4.78752C20.0853 4.8139 20.2035 4.84527 20.3218 4.87846C20.4229 5.06034 20.5246 5.24541 20.6204 5.42865C22.5836 9.12708 23.602 13.1974 23.5963 17.3222Z" fill="url(#paint3_linear_1_74)"/>
<g style="mix-blend-mode:multiply" opacity="0.3">
<path d="M36.032 15.3879C35.9871 15.3356 35.925 15.2674 35.8571 15.1888C35.666 14.9741 35.3952 14.6595 35.0292 14.2666C34.6744 13.8733 34.2125 13.4123 33.6828 12.8934C33.1364 12.3901 32.5054 11.8294 31.7958 11.2474C31.0803 10.6763 30.2915 10.0684 29.4069 9.49184C27.5045 8.22532 25.4541 7.16319 23.295 6.32577C22.7256 6.09842 22.1455 5.90154 21.5654 5.71284C21.2609 5.61826 20.9398 5.51868 20.6246 5.42956C20.3314 5.34589 20.0381 5.26723 19.7625 5.19402C17.4015 4.57854 14.969 4.23181 12.5182 4.1614C11.3851 4.13391 10.2513 4.16017 9.12106 4.24006C8.04588 4.31872 7.03129 4.43922 6.10174 4.59109C4.59358 4.83336 3.10698 5.1802 1.65439 5.62872C0.730703 5.91199 0.167216 6.11115 0.0377045 6.15844C0.046131 6.15194 0.0554991 6.14657 0.0655502 6.14253C6.2811 3.55407 13.2717 3.06111 19.8356 4.74837C26.3995 6.43567 32.1265 10.1978 36.032 15.3879Z" fill="black"/>
</g>
<g style="mix-blend-mode:overlay" opacity="0.3">
<path d="M36.1252 15.4984C36.1081 15.4825 36.0915 15.4616 36.0686 15.4352C36.0573 15.4198 36.0407 15.4038 36.0295 15.3897C35.8266 15.1124 35.6126 14.8346 35.3814 14.5617L35.162 14.2944C34.9929 14.0848 34.8125 13.8751 34.621 13.671C34.5423 13.58 34.4631 13.4927 34.3766 13.4036C34.2021 13.199 34.0105 12.9944 33.8077 12.7957C33.729 12.7116 33.6499 12.6279 33.5658 12.5492C33.3855 12.3551 33.188 12.1614 32.9911 11.9831C32.8917 11.8801 32.7862 11.7822 32.6754 11.6899C32.4838 11.5012 32.2922 11.3261 32.0952 11.1656C31.9882 11.071 31.8812 10.9769 31.7742 10.8928C31.5826 10.72 31.3832 10.5577 31.1877 10.4003C31.0865 10.3217 30.9922 10.243 30.8891 10.1698C30.6584 9.9811 30.4272 9.80286 30.1848 9.62961C30.1457 9.6037 30.1061 9.57232 30.0612 9.54095C29.768 9.32588 29.4747 9.12126 29.1766 8.9221C29.0134 8.81207 28.8443 8.70203 28.6752 8.59199C28.5061 8.48195 28.3375 8.37737 28.1684 8.2737C27.9993 8.17003 27.8263 8.06409 27.6498 7.96451C27.4734 7.86493 27.3077 7.75989 27.1259 7.66577C26.9514 7.56073 26.777 7.46661 26.5966 7.37203C26.4163 7.27746 26.2418 7.18333 26.059 7.09421C25.8763 7.00509 25.6984 6.91233 25.5126 6.82139C25.3269 6.73045 25.1461 6.64861 24.9604 6.56449C24.7522 6.47037 24.5494 6.37579 24.3407 6.28667C24.0592 6.16617 23.7772 6.05113 23.4903 5.93564C22.5728 5.57579 21.6364 5.25923 20.6846 4.98714L20.6792 4.98168C20.5609 4.95031 20.4348 4.91348 20.3185 4.8821C20.2022 4.85073 20.082 4.81935 19.9637 4.79116C17.3855 4.10877 14.7176 3.76473 12.0371 3.76899C10.7164 3.76867 9.3971 3.851 8.08825 4.01543C7.63765 4.07318 7.19829 4.13593 6.75893 4.20959C6.691 4.22005 6.61818 4.23551 6.55024 4.24597C6.04882 4.3369 5.55912 4.43467 5.06893 4.5447C5.057 4.5459 5.04552 4.54944 5.03521 4.55517C3.57199 4.88842 2.13868 5.32657 0.748134 5.86562C0.534074 5.94974 0.314153 6.03886 0.105957 6.12252L0.409946 5.98111C0.674836 5.85516 1.06923 5.67191 1.58288 5.4673C3.00474 4.89483 4.47617 4.43547 5.98137 4.0941C8.12178 3.61766 10.3153 3.37834 12.5161 3.38113C13.7613 3.38377 15.005 3.46093 16.2396 3.61211C17.5092 3.77653 18.7661 4.01635 20.0028 4.33008C20.0087 4.33509 20.0087 4.33509 20.014 4.33509C20.6567 4.50833 21.2358 4.68658 21.8507 4.88074C22.4591 5.08535 23.0676 5.29997 23.6477 5.53596C24.7898 5.9918 25.8966 6.52066 26.9602 7.11877C27.9589 7.67195 28.9168 8.28657 29.8276 8.95848C30.6456 9.55591 31.4262 10.1964 32.1656 10.8769C32.5077 11.1911 32.8249 11.5057 33.123 11.7994C33.4104 12.1086 33.6811 12.3969 33.9402 12.6747C34.4245 13.2404 34.8472 13.7383 35.1683 14.163C35.506 14.5772 35.726 14.9337 35.8892 15.1633C36.0182 15.3411 36.0969 15.4511 36.1252 15.4984Z" fill="white"/>
</g>
<g style="mix-blend-mode:multiply" opacity="0.3">
<path d="M23.5964 17.3222C23.6068 23.165 21.5632 28.8506 17.7772 33.5122C17.7548 33.5386 17.7377 33.5577 17.7284 33.57C17.7567 33.5281 17.83 33.4181 17.9483 33.2517C18.1003 33.0316 18.3256 32.706 18.5958 32.2873C19.3527 31.1331 20.0192 29.9297 20.5903 28.6865C20.9451 27.9212 21.2946 27.0773 21.6166 26.1707C21.9476 25.2185 22.2259 24.2511 22.4504 23.2724C22.6909 22.2293 22.8659 21.1739 22.9743 20.1118C23.0417 19.5721 23.0642 19.0269 23.1038 18.4817C23.1092 17.9211 23.1317 17.3709 23.1151 16.8202C23.0743 14.6507 22.7643 12.4927 22.1909 10.3894C21.9094 9.38317 21.5883 8.42375 21.2335 7.52754C20.8787 6.63133 20.5004 5.80832 20.1065 5.04307C20.0615 4.9594 20.0219 4.87574 19.9716 4.79162C19.387 3.6597 18.7188 2.56687 17.9717 1.52098C17.4982 0.855752 17.1658 0.429699 17.0647 0.293289C17.0772 0.302458 17.0885 0.312991 17.0984 0.324663C18.3372 1.73745 19.4187 3.2635 20.3264 4.87937C20.4276 5.06125 20.5292 5.24632 20.625 5.42956C22.5865 9.12804 23.6034 13.198 23.5964 17.3222Z" fill="black"/>
</g>
<g style="mix-blend-mode:overlay" opacity="0.3">
<path d="M24.0644 16.7979C24.081 17.3745 24.0532 17.9456 24.042 18.5012C23.9965 19.0728 23.9686 19.6439 23.8895 20.205C23.7643 21.2985 23.5572 22.3826 23.2698 23.4493C23.0123 24.4487 22.6829 25.4309 22.284 26.3894C21.9371 27.249 21.5365 28.0891 21.0842 28.9052C20.707 29.594 20.2915 30.2641 19.8394 30.9127C19.4338 31.4893 19.0731 31.9872 18.7462 32.38C18.4422 32.7838 18.1597 33.0721 17.9857 33.2817C17.8958 33.3867 17.8283 33.4599 17.7775 33.5122C20.9966 29.5339 22.9668 24.8029 23.469 19.8452C23.9712 14.8876 22.9858 9.89739 20.6224 5.42956C20.5246 5.24768 20.4269 5.06307 20.3238 4.87937C19.4161 3.26348 18.3345 1.73743 17.0957 0.32465C17.1446 0.37012 17.2199 0.450601 17.3157 0.544725C17.5068 0.743883 17.7888 1.02716 18.1152 1.41502C19.0399 2.48097 19.8673 3.61698 20.5886 4.81117C20.6224 4.86892 20.6561 4.92121 20.6864 4.97895L20.6918 4.98441C21.1365 5.72852 21.537 6.49478 21.8916 7.27973C22.3252 8.2255 22.6959 9.19524 23.0015 10.1834C23.3272 11.2417 23.5794 12.3184 23.7565 13.4068C23.9359 14.53 24.0388 15.6627 24.0644 16.7979Z" fill="white"/>
</g>
<g style="mix-blend-mode:overlay" opacity="0.25">
<path d="M39.6684 8.28098L36.2151 13.8474L36.0573 13.6532C35.8774 13.4332 35.68 13.2026 35.4708 12.9826C35.4087 12.9089 35.3296 12.8198 35.2396 12.7307C35.0475 12.5009 34.8426 12.2805 34.6258 12.0704C34.5637 12.0022 34.4792 11.9186 34.3946 11.8345C34.2089 11.6353 34.0037 11.4361 33.8033 11.2529C33.6906 11.1374 33.5778 11.0325 33.4651 10.9382C33.2569 10.7391 33.0541 10.5558 32.8454 10.3776C32.7555 10.2989 32.6426 10.2044 32.5356 10.1152C32.3328 9.93699 32.1299 9.76966 31.9217 9.60188L31.8201 9.51776C31.7467 9.46547 31.6793 9.41318 31.6119 9.36089C31.3675 9.16173 31.127 8.97803 30.8739 8.79479L30.7444 8.70021C30.4511 8.4906 30.1472 8.27598 29.8373 8.07136C29.6795 7.96133 29.5104 7.85629 29.3486 7.74625C29.1531 7.62076 28.9826 7.51572 28.811 7.41114C28.6156 7.28519 28.4278 7.17515 28.2363 7.06511C28.0896 6.97417 27.9039 6.86596 27.707 6.76638C27.5266 6.65634 27.3405 6.55676 27.1489 6.45718L27.0252 6.38898C26.8786 6.31577 26.7378 6.23711 26.5912 6.16163C26.4221 6.07069 26.231 5.97975 26.0336 5.88381C25.8645 5.80014 25.6788 5.71602 25.4931 5.63236L25.3293 5.55915C25.2282 5.51368 25.1265 5.46457 25.0254 5.42274C23.3866 3.61399 21.3761 2.12793 19.1118 1.05174L19.106 1.04629H35.1781C36.0886 1.04456 36.9834 1.26626 37.7725 1.68901C38.5615 2.11177 39.2168 2.72064 39.6721 3.45421C40.1275 4.18777 40.3669 5.0201 40.3661 5.86721C40.3654 6.71431 40.1246 7.54628 39.6679 8.27916L39.6684 8.28098Z" fill="white"/>
</g>
<g style="mix-blend-mode:overlay" opacity="0.25">
<path d="M26.7002 29.183C30.8749 20.1682 30.0299 13.6951 27.7202 9.25085C27.8272 9.3186 27.9284 9.38181 28.03 9.45001C28.2099 9.56505 28.3677 9.67009 28.5188 9.7683C28.8061 9.962 29.0935 10.1612 29.3638 10.3594C29.3638 10.3594 29.4938 10.454 29.5329 10.4799C29.7132 10.6109 29.9331 10.7786 30.1472 10.9519L30.1961 10.9937C30.2523 11.0355 30.3085 11.0774 30.3593 11.1197L30.4663 11.2033C30.6354 11.3343 30.8153 11.4812 30.9902 11.6385L31.0464 11.6908C31.1364 11.764 31.2268 11.8426 31.3226 11.9213C31.5141 12.0891 31.6886 12.2464 31.8689 12.4192L31.9178 12.4647C32.0008 12.5323 32.0797 12.6041 32.1544 12.6797C32.3738 12.8894 32.5488 13.0621 32.7232 13.2404L32.7682 13.2859C32.8328 13.3449 32.893 13.4079 32.9485 13.4746C33.1572 13.6842 33.3395 13.8729 33.5062 14.0616C33.6039 14.1716 33.6753 14.2503 33.7427 14.3289C33.9291 14.5332 34.1037 14.7324 34.2666 14.9264L34.4807 15.1883C34.6444 15.3979 34.8135 15.6075 34.9821 15.8249L26.7002 29.183Z" fill="white"/>
</g>
<g style="mix-blend-mode:overlay" opacity="0.5">
<path d="M40.6431 8.80525L36.3223 15.7708L26.2087 32.0708C25.7501 32.8179 25.1183 33.4606 24.3592 33.952C23.6001 34.4434 22.7329 34.7713 21.8205 34.9118C21.9388 34.8854 22.1137 34.8436 22.3273 34.7858C23.1674 34.5539 23.9456 34.1601 24.6115 33.6301C25.2773 33.1001 25.8159 32.4456 26.1921 31.7093C26.7893 30.6822 27.4652 29.5236 28.1959 28.2659C29.6777 25.7451 31.4239 22.8204 33.3167 19.6912C34.1788 18.2762 35.0634 16.8139 35.9705 15.3261L35.9758 15.3211C35.9772 15.3132 35.9812 15.3059 35.9871 15.3002C36.0716 15.1583 36.1562 15.0223 36.2407 14.8805C37.249 13.2508 38.2684 11.5889 39.2938 9.9279L40.066 8.69066C40.3088 8.30603 40.5071 7.89844 40.6573 7.4748C40.9446 6.65497 41.0117 5.78213 40.8528 4.93257C40.688 4.08869 40.318 3.29099 39.7713 2.60043C39.2333 1.92598 38.5295 1.38134 37.7186 1.01216C36.9333 0.654976 36.075 0.458087 35.2012 0.434698C34.2726 0.419238 33.3651 0.403323 32.4859 0.392865C30.7172 0.361491 29.0443 0.330117 27.5063 0.298743C24.419 0.240996 21.8503 0.146419 20.0533 0.0995845L17.2251 5.68218e-06H35.1787C36.2869 -0.00142917 37.3758 0.268906 38.3359 0.783769C39.296 1.29863 40.0932 2.03983 40.6473 2.93269C41.2014 3.82554 41.4927 4.8385 41.492 5.86948C41.4913 6.90047 41.1985 7.91308 40.6431 8.80525Z" fill="white"/>
</g>
<g style="mix-blend-mode:multiply" opacity="0.3">
<path d="M16.4195 33.4181C15.9735 33.0228 15.592 32.5689 15.2872 32.0708L0.848861 8.80524C0.597399 8.40002 0.397009 7.96914 0.25165 7.52118C0.248715 7.51449 0.246746 7.50744 0.245789 7.50026C0.245789 7.50026 0.290745 7.6103 0.392399 7.80945C0.537262 8.0936 0.704879 8.36719 0.893829 8.62791C1.39526 9.30405 2.11563 10.2735 2.93864 11.453C3.7724 12.632 4.71905 14.0211 5.7048 15.5252C6.18912 16.28 6.71303 17.0453 7.21446 17.8469C7.71589 18.6486 8.22856 19.4511 8.73536 20.2568C9.23679 21.0753 9.73235 21.8938 10.2225 22.694C10.7127 23.4943 11.1746 24.3032 11.631 25.0735C12.5381 26.6194 13.3548 28.0713 14.0365 29.3344C14.3786 29.9583 14.6899 30.5403 14.9548 31.0591C15.2363 31.5675 15.4504 32.034 15.6532 32.3777C15.8187 32.6525 16.0031 32.9169 16.2055 33.1694C16.3125 33.3026 16.3912 33.3867 16.4195 33.4181Z" fill="black"/>
</g>
</g>
<path d="M23.4902 10.4581V15.9357H21.5038V18.2984H23.4902V24.099H26.2949V18.2984H31.0875V15.9357H26.2949V12.8208H32.2556V10.4581H23.4902Z" fill="white"/>
<path fill-rule="evenodd" clip-rule="evenodd" d="M34.6992 10.4581H37.6316V24.099H34.6992V10.4581Z" fill="white"/>
<path fill-rule="evenodd" clip-rule="evenodd" d="M49.8496 24.099H40.0752V10.4581H42.8211V21.7553H47.5469V19.9441L49.8496 19.8359V24.099Z" fill="white"/>
<path fill-rule="evenodd" clip-rule="evenodd" d="M65 24.099H62.4871V15.2552L58.6466 18.2369L54.8061 15.2552L54.9326 24.099H52.2932V10.4581L58.6466 15.4674L65 10.4581V24.099Z" fill="white"/>
<defs>
<linearGradient id="paint0_linear_1_74" x1="16.7965" y1="7.88652" x2="41.4909" y2="7.88652" gradientUnits="userSpaceOnUse">
<stop stop-color="#FCC400"/>
<stop offset="0.179" stop-color="#FBC000"/>
<stop offset="0.34" stop-color="#F9B500"/>
<stop offset="0.493" stop-color="#F7A300"/>
<stop offset="0.641" stop-color="#F38900"/>
<stop offset="0.787" stop-color="#EE6800"/>
<stop offset="0.928" stop-color="#E84000"/>
<stop offset="1" stop-color="#E52900"/>
</linearGradient>
<linearGradient id="paint1_linear_1_74" x1="0.000915521" y1="3.08355" x2="20.3235" y2="3.08355" gradientUnits="userSpaceOnUse">
<stop stop-color="#FCC400"/>
<stop offset="0.179" stop-color="#FBC000"/>
<stop offset="0.34" stop-color="#F9B500"/>
<stop offset="0.493" stop-color="#F7A300"/>
<stop offset="0.641" stop-color="#F38900"/>
<stop offset="0.787" stop-color="#EE6800"/>
<stop offset="0.928" stop-color="#E84000"/>
<stop offset="1" stop-color="#E52900"/>
</linearGradient>
<linearGradient id="paint2_linear_1_74" x1="17.3081" y1="19.9405" x2="36.3223" y2="19.9405" gradientUnits="userSpaceOnUse">
<stop stop-color="#FCC400"/>
<stop offset="0.179" stop-color="#FBC000"/>
<stop offset="0.34" stop-color="#F9B500"/>
<stop offset="0.493" stop-color="#F7A300"/>
<stop offset="0.641" stop-color="#F38900"/>
<stop offset="0.787" stop-color="#EE6800"/>
<stop offset="0.928" stop-color="#E84000"/>
<stop offset="1" stop-color="#E52900"/>
</linearGradient>
<linearGradient id="paint3_linear_1_74" x1="0.00906372" y1="18.9193" x2="23.5963" y2="18.9193" gradientUnits="userSpaceOnUse">
<stop stop-color="#FCC400"/>
<stop offset="0.179" stop-color="#FBC000"/>
<stop offset="0.34" stop-color="#F9B500"/>
<stop offset="0.493" stop-color="#F7A300"/>
<stop offset="0.641" stop-color="#F38900"/>
<stop offset="0.787" stop-color="#EE6800"/>
<stop offset="0.928" stop-color="#E84000"/>
<stop offset="1" stop-color="#E52900"/>
</linearGradient>
</defs>
</svg>
