<svg width="16" height="16" viewBox="0 0 16 16" fill="none" xmlns="http://www.w3.org/2000/svg">
<path d="M1.33333 5.5C1.33333 3.14297 1.33333 1.96447 2.06556 1.23223C2.7978 0.5 3.9763 0.5 6.33333 0.5H9.66666C12.0237 0.5 13.2022 0.5 13.9344 1.23223C14.6667 1.96447 14.6667 3.14297 14.6667 5.5V11.1897C14.6667 13.4257 14.6667 14.5437 13.9631 14.8857C13.2595 15.2277 12.3804 14.537 10.6221 13.1555L10.0594 12.7133C9.07074 11.9366 8.57641 11.5482 7.99999 11.5482C7.42358 11.5482 6.92925 11.9366 5.94059 12.7133L5.37788 13.1555C3.61962 14.537 2.74049 15.2277 2.0369 14.8857C1.33333 14.5437 1.33333 13.4257 1.33333 11.1897V5.5Z" fill="white" stroke="white" stroke-width="0.833333"/>
</svg>
