<svg xmlns="http://www.w3.org/2000/svg" width="14" height="15" viewBox="0 0 14 15" fill="none">
<path d="M9.67729 11.9271L9.6772 11.927L9.63488 11.8937C9.17682 11.5338 8.76574 11.2108 8.39484 10.9851C7.98951 10.7386 7.53946 10.5482 6.99999 10.5482C6.46053 10.5482 6.01048 10.7386 5.60515 10.9851C5.23424 11.2108 4.82316 11.5338 4.3651 11.8937L4.32279 11.927L4.32273 11.927L3.76005 12.3692C2.85418 13.0809 2.26308 13.5421 1.81428 13.7995C1.65588 13.8904 1.55237 13.934 1.48954 13.9545C1.46684 13.8924 1.43718 13.7841 1.41076 13.6034C1.33594 13.0914 1.33333 12.3417 1.33333 11.1897V5.5C1.33333 4.29322 1.33545 3.48873 1.41594 2.89007C1.49256 2.32017 1.62332 2.08869 1.77267 1.93934C1.92202 1.78999 2.1535 1.65923 2.7234 1.58261C3.32206 1.50212 4.12655 1.5 5.33333 1.5H8.66666C9.87343 1.5 10.6779 1.50212 11.2766 1.58261C11.8465 1.65923 12.078 1.78999 12.2273 1.93935C12.3767 2.0887 12.5074 2.32018 12.584 2.89007C12.6645 3.48873 12.6667 4.29322 12.6667 5.5V11.1897C12.6667 12.3417 12.6641 13.0914 12.5892 13.6034C12.5628 13.7841 12.5331 13.8924 12.5104 13.9545C12.4476 13.934 12.3441 13.8904 12.1857 13.7995C11.7369 13.5421 11.1458 13.081 10.24 12.3692C10.2399 12.3692 10.2399 12.3692 10.2399 12.3692L9.67729 11.9271ZM1.40841 13.9711C1.40883 13.9704 1.41477 13.9696 1.42494 13.9708C1.41306 13.9725 1.40798 13.9718 1.40841 13.9711ZM1.51663 14.0154C1.5239 14.0226 1.52692 14.0278 1.52662 14.0286C1.52631 14.0293 1.52267 14.0257 1.51663 14.0154ZM12.4734 14.0286C12.4731 14.0278 12.4761 14.0226 12.4834 14.0154C12.4773 14.0257 12.4737 14.0293 12.4734 14.0286ZM12.575 13.9708C12.5852 13.9696 12.5912 13.9704 12.5916 13.9711C12.592 13.9718 12.5869 13.9725 12.575 13.9708Z" fill="white" stroke="white" stroke-width="2"/>
</svg>