<svg width="22" height="19" viewBox="0 0 22 19" fill="none" xmlns="http://www.w3.org/2000/svg">
<path d="M13.6331 10.019C14.1211 10.3152 14.1229 10.6877 13.6331 11.0225L9.84847 13.8018C9.37293 14.0782 9.04996 13.915 9.01606 13.3171L9 7.5C8.98929 6.94923 9.40594 6.79361 9.80297 7.05768L13.6331 10.019Z" stroke="white" stroke-width="2"/>
<path d="M1.00065 5.66459L1.00056 15.431C1.00054 16.8498 2.11986 18 3.50061 18L18.4996 18C19.8804 18 20.9997 16.8499 20.9997 15.4312L21 5.44599C21 4.73659 20.4404 4.1615 19.75 4.1615H11.087L8.20669 1H2.25008C1.55952 1 0.999787 1.57455 1 2.28412C1.0003 3.293 1.00066 4.68635 1.00065 5.66459Z" stroke="white" stroke-width="2" stroke-linecap="round" stroke-linejoin="round"/>
</svg>
