<svg width="22" height="18" viewBox="0 0 22 18" fill="none" xmlns="http://www.w3.org/2000/svg">
<path d="M11 13.7998L11 10.4057M11 10.4057L11 7.01161M11 10.4057L7.60587 10.4057M11 10.4057L14.3941 10.4057M1.40093 14.5408L1.40102 5.41649C1.40102 4.50257 1.40068 3.20083 1.40039 2.25829C1.40019 1.59537 1.93752 1.05859 2.60044 1.05859H8.31865L11.0837 4.01223H19.4C20.0627 4.01223 20.6 4.54951 20.6 5.21227L20.5997 14.5409C20.5996 15.8664 19.5251 16.9409 18.1997 16.9409L3.80092 16.9408C2.47543 16.9408 1.40091 15.8663 1.40093 14.5408Z" stroke="white" stroke-width="2" stroke-linecap="round" stroke-linejoin="round"/>
</svg>
