<svg width="18" height="20" viewBox="0 0 18 20" fill="none" xmlns="http://www.w3.org/2000/svg">
<path d="M1 3.5C1 2.11928 1.89543 0.999996 3 0.999996H15C16.1046 0.999996 17 2.11928 17 3.5V12.25C17 13.6307 16.1046 14.75 15 14.75H9H3C1.89543 14.75 1 13.6307 1 12.25V3.5Z" fill="white"/>
<path d="M6 18.5H12M3 14.75C1.89543 14.75 1 13.6307 1 12.25V3.5C1 2.11928 1.89543 0.999996 3 0.999996H15C16.1046 0.999996 17 2.11928 17 3.5V12.25C17 13.6307 16.1046 14.75 15 14.75H9H3Z" stroke="white" stroke-width="2" stroke-linecap="round" stroke-linejoin="round"/>
</svg>
