<svg width="20" height="20" viewBox="0 0 20 20" fill="none" xmlns="http://www.w3.org/2000/svg">
<g filter="url(#filter0_d_44_2151)">
<path fill-rule="evenodd" clip-rule="evenodd" d="M14 3.99999C15.1046 3.99999 16 3.10455 16 1.99998C16 0.895405 15.1046 0 14 0C12.8954 0 12 0.895429 12 2C12 2.14372 12.0152 2.28389 12.044 2.41902L7.50848 4.68676C7.14183 4.26594 6.60197 3.99999 6 3.99999C4.89543 3.99999 4 4.89542 4 5.99999C4 7.10457 4.89543 8 6 8C6.60196 8 7.14182 7.73405 7.50846 7.31325L12.044 9.58102C12.0152 9.71612 12 9.8563 12 10C12 11.1046 12.8954 12 14 12C15.1046 12 16 11.1046 16 10C16 8.89543 15.1046 8 14 8C13.398 8 12.8582 8.26595 12.4915 8.68676L7.95604 6.41901C7.98482 6.28388 7.99999 6.1437 7.99999 5.99999C7.99999 5.85629 7.98484 5.71612 7.95604 5.581L12.4915 3.31324C12.8582 3.73405 13.398 3.99999 14 3.99999ZM15 9.99999C15 10.5523 14.5523 11 14 11C13.4477 11 13 10.5523 13 9.99999C13 9.44771 13.4477 8.99999 14 8.99999C14.5523 8.99999 15 9.44769 15 9.99999ZM6.99999 5.99994C6.99999 6.55222 6.55228 6.99993 6 6.99993C5.44772 6.99993 5.00001 6.55221 5.00001 5.99994C5.00001 5.44767 5.44771 4.99995 6 4.99995C6.55227 4.99995 6.99999 5.44766 6.99999 5.99994ZM15 1.99994C15 2.55222 14.5523 2.99993 14 2.99993C13.4477 2.99993 13 2.55221 13 1.99994C13 1.44766 13.4477 0.999948 14 0.999948C14.5523 0.999948 15 1.44766 15 1.99994Z" fill="white"/>
</g>
<defs>
<filter id="filter0_d_44_2151" x="0" y="0" width="20" height="20" filterUnits="userSpaceOnUse" color-interpolation-filters="sRGB">
<feFlood flood-opacity="0" result="BackgroundImageFix"/>
<feColorMatrix in="SourceAlpha" type="matrix" values="0 0 0 0 0 0 0 0 0 0 0 0 0 0 0 0 0 0 127 0" result="hardAlpha"/>
<feOffset dy="4"/>
<feGaussianBlur stdDeviation="2"/>
<feComposite in2="hardAlpha" operator="out"/>
<feColorMatrix type="matrix" values="0 0 0 0 0 0 0 0 0 0 0 0 0 0 0 0 0 0 0.25 0"/>
<feBlend mode="normal" in2="BackgroundImageFix" result="effect1_dropShadow_44_2151"/>
<feBlend mode="normal" in="SourceGraphic" in2="effect1_dropShadow_44_2151" result="shape"/>
</filter>
</defs>
</svg>
